<svg viewBox="0 0 600 400" xmlns="http://www.w3.org/2000/svg">
<g transform="translate(72, 364)">
<g>
<g>
<path d="M0,-170 L0,-170 L4.848485,-187.14253 L9.69697,-204.1103 L14.545455,-220.73035 L19.39394,-236.83322 L24.242424,-252.25478 L29.09091,-266.8378 L33.939392,-280.43362 L38.78788,-292.90363 L43.636364,-304.12073 L48.484848,-313.97055 L53.333332,-322.35266 L58.18182,-329.18167 L63.030304,-334.3879 L67.878784,-337.9183 L72.72727,-339.73688 L77.57576,-339.8251 L82.42424,-338.18207 L87.27273,-334.82452 L92.121216,-329.78668 L96.969696,-323.11993 L101.818184,-314.8922 L106.666664,-305.1874 L111.51515,-294.10446 L116.36364,-281.75635 L121.21212,-268.26895 L126.06061,-253.77975 L130.90909,-238.43648 L135.75757,-222.39554 L140.60606,-205.82045 L145.45454,-188.8802 L150.30302,-171.74748 L155.15152,-154.59695 L160,-137.60344 L164.84848,-120.9402 L169.69698,-104.777084 L174.54546,-89.278885 L179.39394,-74.60358 L184.24243,-60.900776 L189.09091,-48.310177 L193.93939,-36.960125 L198.78787,-26.966331 L203.63637,-18.430676 L208.48485,-11.440174 L213.33333,-6.06609 L218.18182,-2.3632083 L223.0303,-0.36927775 L227.87878,-0.1046252 L232.72728,-1.5719486 L237.57576,-4.75629 L242.42424,-9.625186 L247.27272,-16.129002 L252.12122,-24.201437 L256.9697,-33.760193 L261.81818,-44.707832 L266.66666,-56.932743 L271.51514,-70.3103 L276.36365,-84.70414 L281.21213,-99.96751 L286.0606,-115.94482 L290.9091,-132.47319 L295.75757,-149.38411 L300.60605,-166.5052 L305.45456,-183.66193 L310.30304,-200.67938 L315.15152,-217.38406 L320,-233.60571 L324.84848,-249.17892 L329.69696,-263.94498 L334.54544,-277.7533 L339.39395,-290.46317 L344.24243,-301.94498 L349.0909,-312.08167 L353.9394,-320.76996 L358.78787,-327.92123 L363.63635,-333.46262 L368.48486,-337.3376 L373.33334,-339.50665 L378.18182,-339.9477 L383.0303,-338.65625 L387.87878,-335.64545 L392.72726,-330.946 L397.57574,-324.6058 L402.42426,-316.6895 L407.27274,-307.2778 L412.12122,-296.46664 L416.9697,-284.3662 L421.81818,-271.0999 L426.66666,-256.80298 L431.51514,-241.62111 L436.36365,-225.70912 L441.21213,-209.22922 L446.0606,-192.34938 L450.9091,-175.24173 L455.75757,-158.08063 L460.60605,-141.04103 L465.45456,-124.29667 L470.30304,-108.01822 L475.15152,-92.37163 L480,-77.51641" fill="none" stroke="#DD3355" stroke-linejoin="round" stroke-width="2"/>
</g>
</g>
<g>
<g>
<line stroke="black" stroke-width="1" x1="0" x2="0" y1="0" y2="10"/>
<line stroke="black" stroke-width="1" x1="96" x2="96" y1="0" y2="10"/>
<line stroke="black" stroke-width="1" x1="192" x2="192" y1="0" y2="10"/>
<line stroke="black" stroke-width="1" x1="288" x2="288" y1="0" y2="10"/>
<line stroke="black" stroke-width="1" x1="384" x2="384" y1="0" y2="10"/>
<line stroke="black" stroke-width="1" x1="480" x2="480" y1="0" y2="10"/>
</g>
<line stroke="black" stroke-width="1" x1="0" x2="480" y1="0" y2="0"/>
<g>
<text font-size="12" text-anchor="middle" x="0" y="20">
0
</text>
<text font-size="12" text-anchor="middle" x="96" y="20">
2
</text>
<text font-size="12" text-anchor="middle" x="192" y="20">
4
</text>
<text font-size="12" text-anchor="middle" x="288" y="20">
6
</text>
<text font-size="12" text-anchor="middle" x="384" y="20">
8
</text>
<text font-size="12" text-anchor="middle" x="480" y="20">
10
</text>
</g>
<text font-size="12" text-anchor="middle" x="240" y="30">

</text>
</g>
<g>
<g>
<line stroke="black" stroke-width="1" x1="0" x2="-10" y1="-0" y2="-0"/>
<line stroke="black" stroke-width="1" x1="0" x2="-10" y1="-85" y2="-85"/>
<line stroke="black" stroke-width="1" x1="0" x2="-10" y1="-170" y2="-170"/>
<line stroke="black" stroke-width="1" x1="0" x2="-10" y1="-255" y2="-255"/>
<line stroke="black" stroke-width="1" x1="0" x2="-10" y1="-340" y2="-340"/>
</g>
<line stroke="black" stroke-width="1" x1="0" x2="0" y1="0" y2="-340"/>
<g>
<text dominant-baseline="middle" font-size="12" text-anchor="end" x="-15" y="-0">
-1
</text>
<text dominant-baseline="middle" font-size="12" text-anchor="end" x="-15" y="-85">
-0.5
</text>
<text dominant-baseline="middle" font-size="12" text-anchor="end" x="-15" y="-170">
0
</text>
<text dominant-baseline="middle" font-size="12" text-anchor="end" x="-15" y="-255">
0.5
</text>
<text dominant-baseline="middle" font-size="12" text-anchor="end" x="-15" y="-340">
1
</text>
</g>
<text font-size="12" text-anchor="middle" transform="rotate(-90 -48 -170)" x="-48" y="-182">

</text>
</g>
</g>
</svg>